<?xml version="1.0" standalone="no"?>
<!DOCTYPE svg PUBLIC "-//W3C//DTD SVG 20010904//EN"
 "http://www.w3.org/TR/2001/REC-SVG-20010904/DTD/svg10.dtd">
<svg version="1.0" xmlns="http://www.w3.org/2000/svg"
 width="120.000000pt" height="120.000000pt" viewBox="0 0 120.000000 120.000000"
 preserveAspectRatio="xMidYMid meet">
<metadata>
Created by potrace 1.11, written by Peter Selinger 2001-2013
</metadata>
<g transform="translate(0.000000,120.000000) scale(0.100000,-0.100000)"
fill="#000000" stroke="none">
<path d="M135 1188 c-83 -30 -125 -93 -133 -199 -9 -124 33 -220 118 -274 45
-28 49 -46 20 -77 -43 -46 -13 -125 55 -148 19 -6 35 -14 35 -17 0 -3 -9 -16
-20 -30 -24 -30 -25 -54 -5 -92 15 -30 33 -41 66 -41 11 0 33 -10 49 -21 24
-18 37 -21 76 -15 l47 6 -45 -48 c-56 -60 -66 -98 -41 -149 25 -50 64 -77 111
-75 85 3 179 3 264 0 47 -2 86 25 111 75 25 51 15 89 -41 149 l-45 48 47 -6
c39 -6 52 -3 76 15 16 11 38 21 49 21 33 0 51 11 66 41 20 38 19 62 -5 92 -11
14 -20 27 -20 30 0 3 16 11 35 17 68 23 98 102 55 148 -29 31 -25 49 20 77 85
54 127 150 118 274 -10 136 -86 211 -214 211 l-44 0 0 -40 c0 -47 -15 -52 -50
-15 -31 33 -110 59 -152 50 -42 -9 -87 -32 -115 -58 l-23 -20 -22 20 c-29 26
-74 49 -116 58 -42 9 -121 -17 -152 -50 -35 -37 -50 -32 -50 15 l0 40 -47 -1
c-27 0 -61 -5 -78 -11z m55 -140 c0 -76 15 -108 52 -108 15 0 18 8 18 55 0 64
15 71 56 30 24 -24 25 -31 23 -121 -2 -92 -1 -96 27 -125 23 -24 36 -29 76
-29 43 0 48 2 48 23 1 12 7 33 15 47 10 17 14 57 15 121 0 87 -2 97 -22 116
-37 33 -65 37 -104 14 -19 -12 -39 -21 -45 -21 -18 0 -9 38 14 52 58 38 128
29 172 -23 22 -27 25 -40 25 -107 l0 -77 40 0 40 0 0 77 c0 68 3 80 26 107 14
17 42 36 63 42 33 10 45 8 84 -9 34 -15 47 -27 47 -41 0 -26 -6 -26 -55 -1
-43 22 -68 19 -102 -13 -21 -19 -23 -29 -23 -116 1 -64 5 -104 15 -121 8 -14
14 -35 15 -47 0 -21 5 -23 48 -23 40 0 53 5 76 29 28 29 29 33 27 125 -2 90
-1 97 23 121 41 41 56 34 56 -30 0 -45 3 -55 17 -55 38 0 53 30 53 106 0 40 3
75 8 78 14 8 70 -22 87 -48 22 -33 31 -139 16 -193 -22 -80 -88 -133 -167
-133 -29 0 -46 -8 -80 -40 -41 -37 -47 -40 -104 -40 -47 0 -60 -3 -60 -15 0
-12 16 -15 83 -15 82 0 84 1 117 35 19 19 40 35 46 35 28 0 23 -22 -17 -64
l-41 -45 -91 -3 c-74 -2 -92 -6 -92 -18 0 -26 159 -26 219 0 58 25 76 25 76 2
0 -32 -102 -62 -208 -62 -75 0 -92 -3 -92 -15 0 -12 15 -15 73 -15 l73 0 43
-44 c29 -29 42 -50 38 -60 -9 -24 -19 -20 -62 24 -37 38 -42 40 -103 40 -55 0
-63 -2 -60 -18 2 -12 15 -18 48 -20 49 -4 80 -24 80 -54 0 -22 -23 -24 -40 -3
-7 8 -29 15 -50 15 -37 0 -37 -1 -54 -57 l-16 -58 56 -56 c61 -62 65 -80 23
-111 -24 -18 -28 -18 -62 -4 -33 13 -40 13 -67 0 -27 -14 -33 -14 -60 0 -27
13 -34 13 -67 0 -34 -14 -38 -14 -62 4 -41 30 -37 48 23 112 l56 58 -15 49
c-8 26 -15 51 -15 56 0 14 -77 7 -90 -8 -17 -21 -40 -19 -40 3 0 30 31 50 80
54 32 2 45 7 45 18 0 11 -15 16 -59 18 -58 3 -60 2 -102 -39 -39 -38 -64 -45
-64 -16 0 6 19 31 42 54 42 43 42 43 115 43 58 0 73 3 73 15 0 12 -17 15 -92
15 -106 0 -208 30 -208 62 0 23 18 23 76 -2 60 -26 219 -26 219 0 0 12 -18 16
-92 18 l-91 3 -41 45 c-40 42 -45 64 -17 64 6 0 27 -16 46 -35 33 -34 35 -35
117 -35 67 0 83 3 83 15 0 12 -13 15 -60 15 -57 0 -63 3 -104 40 -34 32 -51
40 -80 40 -79 0 -145 53 -167 133 -15 54 -6 160 16 193 17 26 73 56 87 48 5
-3 8 -37 8 -76z"/>
<path d="M530 805 c0 -8 7 -15 15 -15 8 0 15 7 15 15 0 8 -7 15 -15 15 -8 0
-15 -7 -15 -15z"/>
<path d="M640 805 c0 -8 7 -15 15 -15 8 0 15 7 15 15 0 8 -7 15 -15 15 -8 0
-15 -7 -15 -15z"/>
</g>
</svg>
